#!OML:ASF I:\Actors\actors\Patient Classification 1\Patient 1\Session 1\Subject1.ASF
:FULLY-SPECIFIED
:DEGREES
853
root 0.818101 17.5195 8.61046 6.41897 -0.082203 -8.62007
lowerback -1.38461 1.00089 7.1697
upperback -5.81655 1.55166 2.08871
thorax -5.15745 0.493426 -1.88002
lowerneck -5.89589 -4.66752 -2.5497
upperneck 32.299 -8.63665 7.11253
head 11.9971 -3.39347 2.08797
rclavicle -2.08724e-015 4.17448e-015
rhumerus 3.17739 61.9156 -92.8222
rradius 139.124
rwrist -1.228
rhand -35.0087 -62.0946
rfingers 7.12502
rthumb -8.15313 -628.083
lclavicle -2.08724e-015 4.17448e-015
lhumerus -15.2101 -63.5058 107.227
lradius 134.528
lwrist 17.6217
lhand -37.9051 -37.4992
lfingers 7.12502
lthumb -10.9478 -7.80462
rfemur -1.71878 23.7018 26.4128
rtibia 4.48241
rfoot -13.1131 -22.1914
rtoes 2.53615
lfemur 6.37648 -40.0391 -11.8783
ltibia -3.41326
lfoot -16.7659 46.5647
ltoes 2.90974
854
root 0.815156 17.5257 8.59707 6.41512 -0.00976176 -8.61077
lowerback -0.947135 1.00883 7.20851
upperback -5.80436 1.60155 2.00934
thorax -5.38765 0.507063 -1.99386
lowerneck -6.21895 -4.7915 -2.44611
upperneck 32.1852 -8.8085 7.05412
head 12.0209 -3.459 2.01579
rclavicle 1.33434e-014 -6.95746e-015
rhumerus 2.92844 61.903 -93.1351
rradius 139.145
rwrist -1.12355
rhand -35.5199 -61.5592
rfingers 7.12502
rthumb -8.64653 -628.638
lclavicle 1.33434e-014 -6.95746e-015
lhumerus -15.2912 -63.7002 107.425
lradius 134.647
lwrist 17.2593
lhand -37.8169 -37.2725
lfingers 7.12502
lthumb -10.8627 -7.5735
rfemur -1.74206 23.8387 26.4132
rtibia 4.47021
rfoot -13.1706 -22.3756
rtoes 2.66862
lfemur 6.17929 -39.8414 -11.7114
ltibia -3.39297
lfoot -16.5404 46.3339
ltoes 2.78419
855
root 0.813554 17.5308 8.58196 6.39856 0.0887381 -8.65475
lowerback -0.527968 0.66255 7.05162
upperback -5.78324 1.19055 2.37234
thorax -5.65019 0.312649 -1.52013
lowerneck -6.31273 -4.55355 -2.89653
upperneck 32.0723 -8.31914 6.8897
head 11.971 -3.31414 2.08913
rclavicle -7.4917e-015 2.33572e-014
rhumerus 2.56789 63.0467 -93.543
rradius 139.216
rwrist -1.28186
rhand -36.2069 -61.1889
rfingers 7.12502
rthumb -9.30942 -629.037
lclavicle -7.4917e-015 2.33572e-014
lhumerus -15.2602 -62.8625 107.552
lradius 134.754
lwrist 16.905
lhand -37.7106 -37.3311
lfingers 7.12502
lthumb -10.7601 -7.62672
rfemur -1.77113 23.8647 26.465
rtibia 4.4535
rfoot -13.1188 -22.4858
rtoes 2.36993
lfemur 5.93163 -39.5622 -11.4506
ltibia -3.34657
lfoot -16.1534 46.0224
ltoes 2.32122
856
root 0.813186 17.5347 8.56778 6.38625 0.193827 -8.6971
lowerback -0.173166 0.705463 7.19856
upperback -5.73084 1.27825 2.25635
thorax -5.78754 0.342475 -1.73091
lowerneck -6.41583 -4.66846 -2.54279
upperneck 31.8917 -8.51465 6.82989
head 11.9129 -3.36821 1.97548
rclavicle -5.2181e-016 5.66536e-015
rhumerus 2.23509 62.8781 -93.9415
rradius 139.303
rwrist -1.10804
rhand -36.4943 -61.0962
rfingers 7.12502
rthumb -9.58679 -629.142
lclavicle -5.2181e-016 5.66536e-015
lhumerus -15.5204 -63.2313 107.878
lradius 134.819
lwrist 17.1394
lhand -37.5019 -37.317
lfingers 7.12502
lthumb -10.5588 -7.60225
rfemur -1.81833 23.8465 26.5027
rtibia 4.448
rfoot -13.0688 -22.5628
rtoes 2.21135
lfemur 5.68471 -39.3358 -11.2203
ltibia -3.26052
lfoot -15.8402 45.7423
ltoes 1.90278
857
root 0.812439 17.5377 8.5565 6.38894 0.258658 -8.70143
lowerback 0.0560151 0.686911 7.24694
upperback -5.62537 1.26851 2.20626
thorax -5.8059 0.335321 -1.81277
lowerneck -6.6347 -4.72138 -2.44096
upperneck 31.8696 -8.60756 6.82554
head 11.9504 -3.39297 1.93831
rclavicle 1.70209e-015 -6.54995e-014
rhumerus 2.10371 62.848 -94.1796
rradius 139.411
rwrist -0.991719
rhand -36.5447 -61.245
rfingers 7.12502
rthumb -9.63541 -628.995
lclavicle 1.70209e-015 -6.54995e-014
lhumerus -15.56 -63.3641 107.983
lradius 134.725
lwrist 17.4497
lhand -37.0263 -37.5196
lfingers 7.12502
lthumb -10.1 -7.78197
rfemur -1.87891 23.8299 26.4904
rtibia 4.47325
rfoot -13.0943 -22.5981
rtoes 2.36238
lfemur 5.50538 -39.2012 -11.0949
ltibia -3.17624
lfoot -15.775 45.5399
ltoes 1.96193
858
root 0.810593 17.5398 8.5469 6.45035 0.292337 -8.72404
lowerback 0.169573 0.650041 7.2925
upperback -5.52174 1.22506 2.20015
thorax -5.76376 0.314756 -1.84396
lowerneck -6.82582 -4.75121 -2.68573
upperneck 31.9749 -8.67684 7.01766
head 12.0599 -3.42267 2.04057
rclavicle -1.65116e-014 5.24792e-014
rhumerus 3.28635 63.5677 -92.9323
rradius 139.539
rwrist -1.3659
rhand -37.6747 -62.4694
rfingers 7.12502
rthumb -10.7255 -627.824
lclavicle -1.65116e-014 5.24792e-014
lhumerus -15.6388 -63.3598 108.157
lradius 134.823
lwrist 17.413
lhand -36.9585 -37.3162
lfingers 7.12502
lthumb -10.0346 -7.57543
rfemur -2.01073 23.868 26.4775
rtibia 4.5336
rfoot -13.1432 -22.6378
rtoes 2.46407
lfemur 5.26047 -39.0194 -10.8866
ltibia -3.11945
lfoot -15.5424 45.3494
ltoes 1.64612
